<svg xmlns="http://www.w3.org/2000/svg" xml:space="preserve" id="img101-logo" x="0" y="0" version="1.1" viewBox="0 0 237.5 149.4">
  <style>
    .st0{fill:#e30613}
  </style>
  <path d="M20.4 149.4V14.9H0V0h36.6v149.4H20.4zM221.3 149.4V14.9h-20.4V0h36.6v149.4h-16.2zM128.2.7C100.3.7 76 16.1 63.4 39h19.3c10.6-13.5 27.1-22.2 45.5-22.2s35 8.7 45.5 22.2H193C180.5 16.1 156.2.7 128.2.7zm45.6 109.7c-10.6 13.5-27 22.2-45.5 22.2s-34.9-8.7-45.5-22.2H63.4c12.6 22.8 36.9 38.3 64.8 38.3s52.2-15.5 64.8-38.3h-19.2z" class="st0"/>
  <path d="M53.1 101.9V49.4h12.7v52.5H53.1zM140.9 101.9H129l-.1-31.5-16.2 25.9H107L90.9 71.1v30.8h-12V49.4h10.5L110 82l20.3-32.6h10.4zM191.1 74.8h11.6v21.3c-3 2.1-6.5 3.8-10.4 4.9-4 1.1-7.9 1.7-11.8 1.7-4.3 0-8.3-.7-12-2-3.6-1.3-6.8-3.2-9.5-5.7-2.7-2.4-4.8-5.3-6.3-8.6s-2.2-6.9-2.2-10.9c0-3.9.7-7.6 2.2-10.9 1.5-3.3 3.6-6.2 6.3-8.6 2.7-2.4 5.9-4.3 9.6-5.7 3.7-1.3 7.7-2 12.1-2 4.9 0 9.3.8 13.2 2.3 3.9 1.5 7.2 3.8 9.9 6.7l-8.2 7.2c-2-2-4.2-3.5-6.5-4.5-2.4-1-4.9-1.5-7.7-1.5-2.7 0-5.1.4-7.3 1.2-2.2.8-4.1 2-5.7 3.5-1.6 1.5-2.8 3.3-3.7 5.3-.9 2.1-1.3 4.3-1.3 6.8 0 2.4.4 4.7 1.3 6.7.9 2.1 2.1 3.8 3.7 5.4 1.6 1.5 3.5 2.7 5.7 3.5 2.2.8 4.6 1.2 7.2 1.2 2.5 0 5-.4 7.3-1.2.9-.3 1.7-.6 2.6-1.1v-15z"/>
</svg>
